<svg width="176" height="97" viewBox="0 0 176 97" fill="none" xmlns="http://www.w3.org/2000/svg">
<g clip-path="url(#clip0_234_3789)">
<path d="M41.9998 61.5304C42.0833 61.5046 42.0704 61.4363 42.075 61.3687C42.0894 61.156 42.0385 60.9349 42.1092 60.7291H46.0089C45.7651 63.1757 46.4085 65.5426 49.0336 66.2149C51.6793 66.8924 55.75 66.145 55.4431 62.6478C55.1841 59.6907 51.0618 59.9087 48.9531 59.5525C46.1768 59.0838 43.6975 57.854 43.045 54.8908C42.2208 51.149 44.2854 47.9466 47.876 46.8695C50.0325 46.2223 53.339 46.2922 55.2988 47.484C57.8283 49.0214 58.9502 51.9345 58.6547 54.8247H54.7549C54.9874 52.6994 54.2301 50.6925 51.9854 50.1775C49.8677 49.6921 46.9129 50.4077 46.9554 53.0564C47.0032 56.0082 51.2372 55.8335 53.2669 56.1852C56.5954 56.7609 59.1727 58.2809 59.5282 61.914C60.022 66.957 56.0668 69.7865 51.4211 69.9886C46.5255 70.2012 42.473 67.9817 42.0719 62.7519C42.059 62.581 42.135 62.3007 41.999 62.1875V61.5312L41.9998 61.5304Z" fill="white"/>
<path d="M60.4041 43.7811V21.0015L70.4459 21C73.34 21.1261 75.9614 22.5002 76.7643 25.433C77.3583 27.6017 76.9937 29.7855 75.3096 31.3351C75.2238 31.4141 74.7126 31.787 74.7263 31.844C76.4992 32.7608 77.6401 34.4593 77.7525 36.4715C78.007 41.0002 75.2945 43.5912 70.8827 43.7826L60.4033 43.7811H60.4041ZM64.4679 24.7554L64.4132 24.8101V30.1676L64.5386 30.2238C66.4482 30.1266 68.4756 30.3476 70.3715 30.2215C72.3047 30.0924 73.3446 28.5208 72.8425 26.6582C72.585 25.7049 71.6248 24.7547 70.591 24.7547H64.4687L64.4679 24.7554ZM64.4679 34.0134L64.4132 34.0681V39.9724L64.5386 40.0287C66.588 39.9208 68.7748 40.1669 70.8083 40.0264C72.9465 39.879 74.1847 37.9846 73.5345 35.9527C73.2208 34.9728 72.1247 34.0134 71.0643 34.0134H64.4679Z" fill="white"/>
<path d="M117.732 69.6218H114.233V66.888C114.031 67.1622 113.892 67.4729 113.695 67.7524C111.046 71.5041 103.88 70.6123 103.663 65.3772C103.52 61.9385 105.824 60.7353 108.796 60.1565C110.366 59.8511 111.963 59.6422 113.54 59.3794C113.64 57.3353 111.487 56.758 109.829 57.1439C108.724 57.4014 107.887 58.1944 107.891 59.3787H104.137C104.215 58.7072 104.332 58.06 104.574 57.428C105.438 55.172 107.482 53.8921 109.842 53.6574C113.83 53.2601 117.481 55.0497 117.733 59.3961L117.732 69.621V69.6218ZM113.54 62.332C112.153 62.5887 110.739 62.733 109.366 63.0597C106.999 63.9127 107.668 66.9458 110.347 66.5546C112.401 66.2545 113.705 64.3548 113.54 62.332Z" fill="white"/>
<path d="M86.6007 27.7559C92.3615 27.4095 96.4937 32.217 95.264 37.8775C93.4546 46.2058 81.0116 46.2399 79.162 37.9072C78.0333 32.8217 81.3451 28.0719 86.6007 27.7559ZM87.1484 31.4354C81.1909 31.5281 81.5791 41.0557 87.7189 40.4283C89.7037 40.2254 91.1766 38.8103 91.4493 36.8331C91.8458 33.9519 90.2453 31.3875 87.1484 31.4354Z" fill="white"/>
<path d="M68.8513 53.5959C74.5771 53.2328 78.7086 57.9264 77.5889 63.5732C75.9649 71.7602 63.9162 72.2121 61.5972 64.2926C60.0795 59.1106 63.3944 53.9423 68.8521 53.5967L68.8513 53.5959ZM69.3617 57.2777C63.7795 57.4448 63.942 65.909 68.9873 66.269C71.5258 66.4498 73.4833 65.0324 73.775 62.4559C74.0986 59.5975 72.3614 57.1881 69.3625 57.2777H69.3617Z" fill="white"/>
<path d="M95.3916 60.5101H91.2913L91.242 60.4501C91.1417 58.8724 89.9871 57.7087 88.4679 57.3927C87.1819 57.1253 85.7812 57.3168 84.6866 58.0597C82.3949 59.6146 82.3091 63.566 84.4208 65.3032C86.635 67.1247 91.0308 66.4297 91.242 63.1216L91.2913 63.0616H95.3916C95.1235 66.4608 92.9549 69.0024 89.6271 69.743C83.4872 71.1095 78.1602 66.8884 79.0337 60.4607C79.7212 55.4011 84.4709 52.8686 89.2701 53.7482C92.7505 54.3862 95.1212 56.9658 95.3916 60.5101Z" fill="white"/>
<path d="M124 43.7815H120.1L120.101 34.067C119.989 29.7426 113.674 31.2132 113.794 34.8691L113.795 43.7822H109.896V28.1095H113.285V30.2599C113.353 30.2751 113.355 30.2371 113.388 30.1991C113.545 30.0176 113.679 29.7616 113.849 29.5671C115.172 28.0525 117.302 27.6415 119.239 27.8588C122.063 28.1763 123.789 30.2333 124 33.0119V43.7815Z" fill="white"/>
<path d="M108.621 33.6497H104.867V32.8293C104.867 32.524 104.643 31.9193 104.459 31.6694C103.818 30.7967 102.327 31.1362 101.713 31.8996C101.519 32.1419 101.222 32.8187 101.222 33.121V43.782H97.3223V28.11H100.712V29.677C101.06 29.2342 101.356 28.8415 101.83 28.5171C103.067 27.6717 105.148 27.5737 106.47 28.2725C108.382 29.2835 108.766 31.6747 108.62 33.6489L108.621 33.6497Z" fill="white"/>
<path d="M124 46.2598H120.101V69.6227H124V46.2598Z" fill="white"/>
<path d="M101.295 53.9492H97.3955V69.6212H101.295V53.9492Z" fill="white"/>
<path d="M99.0648 47.2548C102.327 46.919 102.702 51.8222 99.5274 52.0547C96.4001 52.284 96.0271 47.5677 99.0648 47.2548Z" fill="white"/>
</g>
<defs>
<clipPath id="clip0_234_3789">
<rect width="82" height="49.0464" fill="white" transform="translate(42 21)"/>
</clipPath>
</defs>
</svg>
