<svg width="194" height="97" viewBox="0 0 194 97" fill="none" xmlns="http://www.w3.org/2000/svg">
<g clip-path="url(#clip0_234_3844)">
<path d="M153 60.8556L142.393 60.8553C136.972 60.5925 133.16 56.8905 132.33 51.6136C131.772 48.07 132.303 44.3827 134.563 41.5299C137.427 37.9151 141.887 36.7456 146.335 37.7458C147.046 37.9059 147.74 38.1373 148.433 38.3579V28.0437L152.968 26H153V60.8556ZM148.433 56.9581V42.4296C145.333 40.7773 141.001 40.8916 138.618 43.7125C136.289 46.4705 135.967 52.1602 138.396 54.9305C139.866 56.6067 141.336 56.8826 143.501 56.9593L148.433 56.9581Z" fill="white"/>
<path d="M113.996 37.9142L113.994 51.5886C113.989 51.6748 114.025 51.7543 114.029 51.8393C114.157 54.9157 114.67 57.3262 118.26 57.4979C120.776 57.6183 122.776 56.3397 124.175 54.3438V37.9142H128.742V60.8555H124.175V57.9719C122.734 59.518 120.767 60.7397 118.663 61.1306C115.599 61.7001 112.325 60.4639 110.685 57.7791C109.695 56.1594 109.584 54.2363 109.46 52.3807L109.462 37.9141H113.996L113.996 37.9142Z" fill="white"/>
<path d="M60.0239 43.8714L58.5342 43.031C53.8987 40.4013 48.0022 41.6658 46.8161 47.3565C45.9612 51.458 47.6408 55.575 51.8926 56.702C54.8499 57.4859 57.8227 56.7225 60.5314 55.5003V59.9999C59.9259 60.2115 59.3189 60.424 58.699 60.593C53.4477 62.0253 47.3537 61.4192 44.0348 56.664C41.3189 52.7728 41.365 46.2956 43.9143 42.3339C46.4136 38.4499 50.5582 37.0611 55.0609 37.5342C56.7905 37.716 58.4681 38.3317 60.0239 39.0707V43.8713V43.8714Z" fill="white"/>
<path d="M69.2205 43.1419C69.5472 42.6863 69.8264 42.1985 70.146 41.7377C71.2803 40.1017 72.9772 38.1206 74.9784 37.5992C77.3904 36.9707 79.7332 38.4807 81.4317 40.0251L79.0821 44.029C79.0288 44.0688 78.5397 43.5861 78.4634 43.5228C77.8924 43.0488 77.2121 42.5585 76.5355 42.2489C72.344 40.3311 69.1886 44.9709 69.2191 48.7013L69.2207 60.8547H64.6543V37.9135H69.2207V43.1417L69.2205 43.1419Z" fill="white"/>
<path d="M92.7811 37.9453V42.0647C89.8658 42.4015 87.4835 44.6878 86.835 47.5144C86.521 48.8826 86.5368 50.5431 86.9236 51.8945C87.6835 54.5498 90.046 56.5338 92.7811 56.8942V61.2037C90.3227 61.0136 87.9536 60.0602 86.0751 58.4778C82.803 55.7213 81.5066 51.764 82.1671 47.54C82.9865 42.3003 87.5422 38.3592 92.7809 37.9455L92.7811 37.9453Z" fill="white"/>
<path d="M96.1426 61.1398V56.8303C98.7627 56.3219 100.934 54.3147 101.619 51.7356C101.953 50.4817 101.985 48.9703 101.708 47.7041C101.108 44.96 98.8764 42.7944 96.1426 42.1909V37.9766C98.1299 38.2003 100.048 38.9158 101.67 40.0737C105.425 42.7543 107.072 47.1198 106.38 51.6758C105.599 56.8177 101.211 60.5339 96.1426 61.1397V61.1398Z" fill="white"/>
</g>
<defs>
<clipPath id="clip0_234_3844">
<rect width="111" height="35.2747" fill="white" transform="translate(42 26)"/>
</clipPath>
</defs>
</svg>
