<svg width="176" height="97" viewBox="0 0 176 97" fill="none" xmlns="http://www.w3.org/2000/svg">
<g clip-path="url(#clip0_234_3860)">
<path d="M53.0003 64.5116V54.9961L65.039 54.9956C70.6047 54.5967 75.4153 50.4788 76.5946 45.0224C78.2573 37.3294 72.7611 30.1004 64.987 29.5178L53 29.5173V20.0021L64.3138 20C74.9271 20.0955 84.1418 27.861 86.0078 38.2956C88.4241 51.8072 78.192 64.1762 64.5738 64.5139L53.0003 64.5118V64.5116Z" fill="white"/>
<path d="M123 20.0021V29.5176L111.013 29.5181C103.253 30.0937 97.749 37.3417 99.4149 45.0133C100.603 50.485 105.378 54.5798 110.961 54.9956L123 54.9961V64.5116L111.427 64.5137C97.7854 64.1444 87.6171 51.8358 90.0011 38.3037C91.8349 27.897 101.107 20.0853 111.687 20L123 20.0021Z" fill="white"/>
<path d="M64.5198 72.416L66.5479 75.5883C66.5749 74.7866 66.6004 73.9711 66.576 73.1678C66.5689 72.9362 66.4167 72.6172 66.5999 72.416H67.5879L67.666 72.4941V77.2518H66.4698L64.442 74.0801L64.4935 77.2518H63.4014V72.416H64.5195H64.5198Z" fill="white"/>
<path d="M53 77.2518V72.416H55.1582C57.1036 72.416 58.1322 74.9812 56.8467 76.4441C56.5543 76.7769 55.7502 77.2518 55.3143 77.2518H53ZM54.0921 76.3679H55.0541C55.1244 76.3679 55.535 76.2037 55.6177 76.1514C56.452 75.6257 56.5098 74.2071 55.7213 73.6208C55.6388 73.5597 55.2829 73.3517 55.2103 73.3517H54.0921V76.3676V76.3679Z" fill="white"/>
<path d="M94.2668 72.4162C95.8197 72.5804 96.4432 74.5031 94.7604 74.9899C95.9321 75.2744 95.5148 76.3774 95.7489 77.2517H94.6048C94.471 76.8552 94.611 76.0493 94.3732 75.7412C94.3386 75.6962 94.1455 75.5356 94.1106 75.5356H92.9925V77.2515H91.9004V72.4157C92.6561 72.4739 93.5246 72.3371 94.2668 72.4157V72.4162ZM92.9925 74.6519H94.0066C94.5166 74.6519 94.7992 73.9327 94.4494 73.5333C94.4271 73.5078 94.2296 73.3522 94.2147 73.3522H92.9925V74.6522V74.6519Z" fill="white"/>
<path d="M89.353 74.3907C89.3502 73.5824 88.6127 73.2179 87.8761 73.3051C86.5542 73.4612 86.282 75.5684 87.4124 76.201C88.1922 76.6374 89.3353 76.2564 89.3528 75.2754L90.4449 75.3269C90.4431 76.908 88.7605 77.6899 87.3647 77.2884C85.3439 76.7074 84.9331 74.0053 86.5995 72.7568C87.9403 71.7521 90.3676 72.4274 90.4899 74.2572C90.4691 74.3183 90.423 74.3293 90.3663 74.3391C90.0853 74.3873 89.652 74.3542 89.3528 74.3909L89.353 74.3907Z" fill="white"/>
<path d="M77.0274 73.8709L75.9678 73.9159L75.9064 73.8733C75.9192 72.9331 74.296 72.9505 74.5041 73.8725C74.6033 74.3117 75.4308 74.2735 75.7893 74.3541C77.8895 74.8267 77.4833 77.2487 75.4341 77.3997C74.3941 77.4762 73.1895 76.9123 73.2608 75.7369L74.3225 75.6385C74.1986 76.6052 75.9793 76.829 76.042 75.976C76.0904 75.3177 75.3103 75.3999 74.884 75.3117C74.1854 75.1673 73.4987 74.9131 73.3912 74.1004C73.0854 71.7887 76.9647 71.6703 77.0274 73.8709Z" fill="white"/>
<path d="M81.3953 72.416H82.5395V75.6138C82.5395 75.7363 82.3589 76.2203 82.2889 76.3512C81.5853 77.6653 79.3618 77.7137 78.5965 76.4366C78.527 76.3208 78.3271 75.8761 78.3271 75.7699V72.416H79.3932L79.4713 72.4941V75.6658C79.4713 75.6851 79.628 75.9622 79.6566 76.0005C79.9748 76.4223 80.7385 76.4782 81.1096 76.1079C81.1739 76.0439 81.3956 75.6237 81.3956 75.5617V72.416H81.3953Z" fill="white"/>
<path d="M101.47 77.2513L103.263 72.4668L104.566 72.4121L106.41 77.2513H105.344L104.905 76.1311C104.83 76.0811 103.291 76.0811 103.105 76.1043C103.048 76.1113 102.989 76.1004 102.952 76.1589L102.562 77.251H101.47L101.47 77.2513ZM103.29 75.2755H104.512L104.568 75.1696L103.966 73.5076C103.894 73.5131 103.883 73.5836 103.86 73.6348C103.631 74.1339 103.476 74.7527 103.29 75.2752V75.2755Z" fill="white"/>
<path d="M100.481 72.416V73.3H98.193V74.3918H100.221V75.2237H98.193V76.3676H100.533V77.2516H97.0488V72.4938L97.1269 72.416H100.481Z" fill="white"/>
<path d="M123 72.416V73.3H120.712V74.3918H122.74V75.2237H120.712V76.3676H123V77.2516H119.567V72.416H123Z" fill="white"/>
<path d="M62.0491 72.416V73.3H59.8131V74.3918H61.7631L61.8412 74.4699V75.2237H59.8131V76.3676H62.1012V77.2516H58.6689V72.416H62.0491Z" fill="white"/>
<path d="M115.173 72.416L116.317 75.8482L117.435 72.416H118.632L116.936 77.2549L115.693 77.2L114.003 72.416H115.173Z" fill="white"/>
<path d="M71.3585 73.352V77.2516H70.2144V73.352H68.8623V72.416H72.6328L72.7109 72.4938V73.2739L72.6328 73.352H71.3585Z" fill="white"/>
<path d="M110.363 72.416V73.2739L110.285 73.352H109.011V77.2516H107.867V73.352H106.593L106.515 73.2739V72.416H110.363Z" fill="white"/>
<path d="M112.755 72.416H111.663V77.2518H112.755V72.416Z" fill="white"/>
</g>
<defs>
<clipPath id="clip0_234_3860">
<rect width="70" height="57.407" fill="white" transform="translate(53 20)"/>
</clipPath>
</defs>
</svg>
