<svg width="194" height="97" viewBox="0 0 194 97" fill="none" xmlns="http://www.w3.org/2000/svg">
<g clip-path="url(#clip0_234_3775)">
<path d="M173 54.2897L163.986 58.973C160.755 55.9375 157.719 52.6647 154.457 49.6643C154.069 49.3083 153.031 48.2721 152.715 48.0682C152.528 47.948 152.412 47.8811 152.176 47.9252L154.456 61.87H139.027L122.234 45.7266L131.085 41.1301L142.825 52.1687L143.021 51.6849C142.521 46.8814 140.887 41.6611 140.488 36.9155C140.468 36.6766 140.421 36.4408 140.496 36.2034L149.216 31.5582C149.384 31.5628 150.226 32.2855 150.431 32.4605C153.626 35.2038 156.581 38.8432 159.773 41.6368C159.991 41.8285 161.097 42.8159 161.295 42.6197L158.573 26.5752L167.299 22L167.524 22.2313L173.001 53.8348V54.2897H173Z" fill="white"/>
<path d="M26.2447 43.2235L29.2862 53.681L32.6259 43.3727L37.0429 43.2129L40.6109 53.8331L43.8776 43.2235H48.7419L48.9093 43.537L43.2005 61.6461C42.4976 61.6872 38.6694 61.8865 38.4032 61.567L34.9097 50.8007L31.4742 61.7009L26.8472 61.7268L21 43.2235H26.2447Z" fill="white"/>
<path d="M78.0012 36.7051V49.4372L78.4637 49.3352L84.1573 43.2233H90.3133L83.4711 50.5722L90.3803 61.2685L90.4624 61.7143C90.4062 61.7889 90.2692 61.5622 90.2357 61.5622H84.6122L79.7479 54.2893L77.8475 56.1821V61.5637H72.8311V36.7051H77.9997H78.0012Z" fill="white"/>
<path d="M105.967 54.2894H93.6553C94.1498 58.9544 99.5557 58.0248 102.374 55.9722L105.19 58.5893C101.875 63.2329 93.92 63.2299 90.3155 58.9088C84.377 51.7881 90.489 40.5166 100.073 43.2675C104.694 44.5928 106.827 49.8238 105.967 54.291V54.2894ZM93.5031 50.8021H100.571C100.603 50.8021 100.743 51.0288 100.797 50.9543C100.689 45.9667 93.9048 45.8906 93.5031 50.8021Z" fill="white"/>
<path d="M64.776 61.566H59.7595C59.7413 59.2579 59.2148 60.4492 58.0904 61.038C53.2946 63.547 47.2952 61.3408 47.9053 55.2776C48.4318 50.0435 55.729 49.759 59.6074 50.9549C59.5693 49.6799 59.2574 48.312 57.9109 47.8738C55.8188 47.1937 52.8944 48.0777 50.7917 48.312L49.5668 44.5387C53.6111 42.2807 62.7295 41.9216 64.3667 47.3474C64.5112 47.8267 64.7775 49.2189 64.7775 49.6662V61.5645L64.776 61.566ZM56.085 53.5719C52.0393 53.753 51.9252 58.351 55.8842 58.3495C57.141 58.3495 59.0322 57.6329 59.5054 56.3852C59.6774 55.9303 59.8082 54.5609 59.4628 54.2079C59.1174 53.8549 56.6754 53.5461 56.0866 53.5719H56.085Z" fill="white"/>
<path d="M71.3122 36.7051H66.1436V61.5637H71.3122V36.7051Z" fill="white"/>
<path d="M112.656 61.5654H107.64V43.3756H112.656L112.886 45.3475C114.595 44.2672 116.285 42.3106 118.519 43.0622V48.2354C117.663 48.4773 116.799 48.5336 115.961 48.8683C111.103 50.8098 113.459 57.6064 112.656 61.5639V61.5654Z" fill="white"/>
</g>
<defs>
<clipPath id="clip0_234_3775">
<rect width="152" height="40.1119" fill="white" transform="translate(21 22)"/>
</clipPath>
</defs>
</svg>
