<svg width="194" height="97" viewBox="0 0 194 97" fill="none" xmlns="http://www.w3.org/2000/svg">
<g clip-path="url(#clip0_234_3834)">
<path d="M101.229 19C114.755 20.0895 123.417 34.0781 117.88 46.6541C111.704 60.6781 92.418 62.5181 83.6079 49.9565C74.8716 37.4996 83.2598 20.0262 98.4027 19H101.229ZM96.1491 31.4637L92.947 29.2116L86.8063 48.0774L99.8162 38.7744L112.826 48.0774L106.685 29.2116L103.463 31.5111L105.711 38.4505L99.8162 34.1995L93.9212 38.4505L96.1491 31.4637Z" fill="white"/>
<path d="M164.412 76.0065L162.766 75.9447L156.91 68.4531V76.0065H155.034V65.2441H156.809L162.536 72.5979V65.2441H164.412V76.0065Z" fill="white"/>
<path d="M38.0765 65.245L40.5554 73.0659L43.1993 65.3106C43.3138 65.1735 44.5796 65.2541 44.8441 65.2752L44.8976 65.3558L47.5203 73.0659L49.9992 65.245H52.0087L48.2911 76.0081L46.6237 76.079L44.004 68.4533L41.4189 75.9682C41.3706 76.0714 41.29 76.0669 41.1936 76.0782C40.9841 76.1023 39.8057 76.1023 39.7145 76.0097L36 65.245H38.0765Z" fill="white"/>
<path d="M125.627 65.2441L128.81 70.2584L129.273 69.6503L132.058 65.2441H134.135V76.0065H132.192V68.4531L128.943 73.2647L128.744 73.3362L125.427 68.4531V76.0065H123.551V65.2441H125.627Z" fill="white"/>
<path d="M114.675 65.2441C116.351 65.3805 118.022 66.3314 118.191 68.1532C118.324 69.5961 117.919 70.7994 116.629 71.5393C116.363 71.6922 116.041 71.7728 115.798 71.9137C115.741 71.9469 115.687 71.8956 115.714 72.0275L118.526 76.0065H116.35L113.67 72.2633H111.359V76.0065H109.417V65.2441H114.675ZM111.359 70.5922H114.206C114.34 70.5922 114.835 70.4867 114.991 70.44C116.605 69.9585 116.755 67.7321 115.156 67.1707C114.991 67.1127 114.485 66.9824 114.339 66.9824H111.359V70.5922H111.359Z" fill="white"/>
<path d="M104.058 65.2441V66.9824H97.9619V69.7227H103.321V71.4609H97.9619V74.269H104.125V76.0065H96.0195V65.2441H104.058Z" fill="white"/>
<path d="M54.6895 76.0062L59.3172 65.283C59.3503 65.2091 59.4046 65.1903 59.4792 65.1767C59.9358 65.0931 60.6056 65.2415 61.0893 65.1722L65.876 76.0062H63.8997L62.7868 73.4067L57.6965 73.4406L56.6319 76.0062H54.6895ZM62.0575 71.728L60.1829 67.517L58.4409 71.728H62.0582H62.0575Z" fill="white"/>
<path d="M139.024 76.0062L143.652 65.283C143.685 65.2091 143.74 65.1903 143.814 65.1767C144.271 65.0931 144.941 65.2415 145.424 65.1722L150.211 76.0062H148.235L147.122 73.4067L142.031 73.4406L140.967 76.0062H139.024ZM146.393 71.728L144.551 67.5162L142.776 71.728H146.393Z" fill="white"/>
<path d="M90.5178 66.389C90.5645 66.4696 90.4997 66.5495 90.465 66.6195C90.3995 66.7514 89.5699 67.9162 89.4886 67.9155C88.9054 67.4257 88.0789 67.006 87.3277 66.8659C86.2412 66.6632 84.6484 66.9616 84.9158 68.4045C85.0432 69.0901 86.0114 69.3606 86.5908 69.5407C88.2333 70.0515 90.6625 70.3152 90.8614 72.4987C91.2773 77.0662 84.8639 76.8869 82.5605 74.4268L83.6636 73.0653C84.3794 73.6003 85.0665 74.1066 85.9586 74.3161C86.9585 74.5512 88.9129 74.5715 88.9687 73.1482C89.0229 71.7588 86.8191 71.5931 85.8381 71.294C83.7924 70.6701 82.2742 69.4827 83.1746 67.0987C84.2068 64.3644 88.647 64.7849 90.5178 66.3897V66.389Z" fill="white"/>
<path d="M76.8598 67.9182C76.1621 67.4669 75.4358 67.0201 74.6002 66.8657C73.8219 66.7225 72.6073 66.7835 72.2743 67.6515C71.6293 69.3317 74.2031 69.5668 75.2534 69.89C77.1484 70.4725 78.3547 71.2199 78.1332 73.432C78.0005 74.7558 76.948 75.6494 75.7221 75.9727C73.6817 76.5099 71.4229 75.8265 69.8564 74.471L70.9015 73.0666C71.4138 73.3311 71.8523 73.759 72.3941 74.0137C73.354 74.4643 75.3725 74.8108 76.0468 73.7568C76.7551 72.6492 75.7424 72.0359 74.8195 71.7277C72.6827 71.0149 69.6734 70.8341 70.3032 67.6244C70.9422 64.3672 75.9037 64.6113 77.8649 66.4814L76.8598 67.9182Z" fill="white"/>
</g>
<defs>
<clipPath id="clip0_234_3834">
<rect width="128.412" height="57.1564" fill="white" transform="translate(36 19)"/>
</clipPath>
</defs>
</svg>
