<svg width="194" height="97" viewBox="0 0 194 97" fill="none" xmlns="http://www.w3.org/2000/svg">
<g clip-path="url(#clip0_234_3822)">
<path d="M81.0353 67.6915H80.9081L81.263 60.3012C73.0154 52.4251 73.9007 39.0539 83.3567 32.5464C93.2069 25.768 106.88 30.5647 110.411 41.8587C114.632 55.3621 102.48 67.8047 88.8796 64.5484L81.0353 67.6915ZM83.8311 63.6339L89.0056 61.6305C100.459 65 111.134 54.6536 107.901 43.0951C105.27 33.6912 94.3085 29.3143 85.823 34.2458C76.6444 39.5805 75.8926 52.4124 84.0601 59.0305L83.8311 63.6339Z" fill="white"/>
<path d="M161.95 45.8835C162.016 46.4992 162.016 47.8043 161.95 48.4186C161.646 51.245 159.363 54.2914 156.871 55.5837C153.696 57.231 149.783 56.4881 146.326 56.6586V37.7695H154.139C154.546 37.7695 156.338 38.4564 156.783 38.6803C159.303 39.9459 161.646 43.0521 161.95 45.8835ZM149.121 53.7444H153.503C156.431 53.7444 159.141 49.9692 159.167 47.214C159.191 44.4538 156.414 40.559 153.503 40.559H149.121V53.7444Z" fill="white"/>
<path d="M116.412 37.7695L122.255 49.9399L127.906 38.0239L133.371 49.9412L139.276 37.7695H142.134L133.432 56.2795L127.906 44.3635L122.316 56.2795L113.554 37.7695H116.412Z" fill="white"/>
<path d="M70.619 56.6598H67.5064L63.6956 50.1943H58.1065L57.9157 50.3851V56.6611H55.3119L55.1211 56.4703V37.7695H65.8541C66.4978 37.7695 68.1946 38.7719 68.7136 39.226C72.3883 42.4403 71.0896 47.9963 66.8107 49.8763L70.6177 56.6598H70.619ZM57.9169 47.2789C59.7588 47.2866 61.6044 47.2713 63.4475 47.2738C63.7833 47.2738 64.081 47.4176 64.4511 47.4099C67.2762 47.3501 69.0316 44.3355 67.3716 41.962C67.018 41.4558 65.8338 40.559 65.2207 40.559H58.1077L57.9169 40.7498V47.2789Z" fill="white"/>
<path d="M40.9971 37.808C43.9901 37.4862 46.9004 38.1642 49.0233 40.3698L47.039 42.3261C44.0333 39.6779 39.818 39.9908 37.274 43.0944C34.8648 46.0327 35.614 50.5597 38.7711 52.6331C41.4436 54.3884 44.6719 54.0641 47.0581 51.9933L49.0233 53.9356C48.5133 54.4889 47.9027 54.9544 47.2502 55.3322C39.8917 59.5845 31.1646 52.8264 33.3384 44.617C34.2199 41.2882 37.5195 38.1807 40.9958 37.8068L40.9971 37.808Z" fill="white"/>
<path d="M102.63 39.7988L103.166 45.4782L104.392 45.8382L104.335 48.6887L103.096 49.0818L102.512 54.5806C102.377 54.676 101.211 54.4928 101.011 54.4114C100.584 54.2384 99.2086 52.969 98.5243 52.5836C95.5873 50.93 92.1682 50.4746 88.8648 50.079C88.1156 51.3446 87.6997 53.2297 87.9083 54.6849C87.9693 55.111 89.0925 56.4402 88.0749 56.4924C87.6501 56.514 84.8682 55.9785 84.624 55.7432C84.3467 55.4773 84.8619 53.521 84.984 53.058C85.2562 52.0341 85.6492 50.9579 86.1148 50.0052C86.0919 49.6211 84.3989 49.976 84.0313 49.7038C84.044 48.5119 83.0544 49.0818 82.3688 48.5501C82.2874 48.1227 82.2123 45.7975 82.4527 45.6499C82.8178 45.6016 83.38 45.627 83.6993 45.4362C84.0542 45.2251 83.871 44.7354 84.1648 44.6324C89.2782 44.3169 95.0518 44.1592 99.4439 41.245C99.8268 40.9906 100.739 40.1015 100.983 39.9921C101.174 39.9069 102.562 39.7263 102.632 39.7975L102.63 39.7988Z" fill="white"/>
</g>
<defs>
<clipPath id="clip0_234_3822">
<rect width="129" height="38.2652" fill="white" transform="translate(33 29.4258)"/>
</clipPath>
</defs>
</svg>
